<svg version="1.1" xmlns="http://www.w3.org/2000/svg" xmlns:xlink="http://www.w3.org/1999/xlink" width="800" height="800" viewBox="0 0 800 800"><path stroke="none" fill="#000000" fill-rule="evenodd" d="M204.104631,767.417482C201.137179,766.619489 196.530237,764.780611 193.866983,763.331086C188.012479,760.144666 178.076216,750.029881 175.132803,744.260315C169.669073,733.550519 170.000000,755.230248 170.000000,408.000000C170.000000,57.057806 169.578470,82.057134 175.685116,70.837215C178.857562,65.008386 188.981672,55.070322 194.739685,52.132803C204.793698,47.003628 204.858709,47.000000 286.710099,47.000000C345.380022,47.000000 363.000000,46.722847 363.000000,45.800000C363.000000,44.866667 363.266667,44.866667 364.200000,45.800000C365.118393,46.718393 390.531089,47.000000 472.489901,47.000000C587.747294,47.000000 584.971731,46.883959 595.260315,52.132803C601.018328,55.070322 611.142438,65.008386 614.314884,70.837215C620.421530,82.057134 620.000000,57.057806 620.000000,408.000000C620.000000,758.942194 620.421530,733.942866 614.314884,745.162785C611.142438,750.991614 601.018328,760.929678 595.260315,763.867197C584.703965,769.252645 594.501844,769.005307 394.539901,768.934189C236.136106,768.877851 208.723348,768.659524 204.104631,767.417482zM363.000000,604.482652L363.000000,472.965304L306.021080,529.917808L249.042160,586.870313L242.271080,580.598939C238.546986,577.149684 228.300000,567.695401 219.500000,559.589421L203.500000,544.851276L203.205493,630.675638C203.043514,677.879037 203.194461,718.911062 203.540932,721.857916C204.300497,728.318274 208.599944,733.702602 214.015925,734.976064C215.932166,735.426631 250.237500,735.841340 290.250000,735.897639L363.000000,736.000000L363.000000,604.482652zM575.500000,735.029000C581.455694,733.654297 585.667205,728.592765 586.459167,721.857916C586.805693,718.911062 586.956640,679.224344 586.794607,633.665210L586.500000,550.830419L523.500000,608.516563C488.850000,640.243942 455.100000,671.174453 448.500000,677.251032C441.900000,683.327612 434.475000,690.141597 432.000000,692.393222C429.525000,694.644847 424.566315,699.189991 420.980701,702.493543C417.395086,705.797094 409.534362,713.000000 403.512424,718.500000C397.490486,724.000000 390.749170,730.176248 388.531723,732.224996L384.500000,735.949993L478.000000,735.951140C531.603938,735.951797 573.206783,735.558324 575.500000,735.029000zM454.576766,526.723386L469.829619,510.946771L448.164810,489.126454C436.249164,477.125279 426.275000,467.419101 426.000000,467.557169C425.725000,467.695236 425.621812,487.718412 425.770694,512.053115L426.041389,556.298030L432.682651,549.399015C436.335345,545.604557 446.187697,535.400524 454.576766,526.723386zM342.981740,400.343745C342.991783,399.707805 311.500000,367.683196 273.000000,329.177948L203.000000,259.168406L203.000000,400.267563L203.000000,541.366720L272.981740,471.433360C311.471696,432.970012 342.971696,400.979685 342.981740,400.343745zM587.000000,400.411106L587.000000,268.822213L583.750000,271.545348C581.962500,273.043073 574.878662,279.495575 568.008138,285.884242C561.137613,292.272909 552.370125,300.425000 548.524830,304.000000C544.679536,307.575000 538.375874,313.457079 534.516693,317.071286C530.657512,320.685493 524.800000,326.085493 521.500000,329.071286C518.200000,332.057079 515.275000,334.745288 515.000000,335.045085C514.725000,335.344881 507.750000,341.840850 499.500000,349.480571C471.865324,375.071020 459.684118,386.451109 452.381765,393.500000L445.130062,400.500000L465.229415,419.000000C476.284059,429.175000 498.884438,450.100000 515.452479,465.500000C532.020521,480.900000 553.844505,501.150000 563.950221,510.500000C574.055937,519.850000 583.232445,528.512500 584.342461,529.750000C585.452476,530.987500 586.504520,532.000000 586.680335,532.000000C586.856151,532.000000 587.000000,472.784998 587.000000,400.411106zM363.000000,203.500000L363.000000,80.000000L290.750000,80.023857C250.237344,80.037234 216.742915,80.453287 214.500000,80.971000C208.544434,82.345674 204.332844,87.407215 203.540651,94.142084C203.194025,97.088938 203.043078,134.588305 203.205211,177.474010L203.500000,255.448020L225.975319,234.724010C238.336744,223.325805 248.688237,214.000000 248.978637,214.000000C249.269037,214.000000 274.928651,239.425000 306.000000,270.500000C337.071349,301.575000 362.607356,327.000000 362.746681,327.000000C362.886007,327.000000 363.000000,271.425000 363.000000,203.500000zM467.000000,280.321929C467.000000,279.392449 460.794631,272.672972 442.849971,254.171097L426.042957,236.842194L425.771479,279.005070C425.622165,302.194652 425.669059,321.336718 425.875688,321.542994C426.310629,321.977195 467.000000,281.192094 467.000000,280.321929zM586.445881,94.033325C585.912961,89.509125 585.166757,87.931463 582.117647,84.882353C579.068378,81.833084 577.491111,81.087119 572.966675,80.554421C569.960004,80.200422 530.264409,80.043360 484.754243,80.205393L402.008486,80.500000L410.313500,88.000000C414.881257,92.125000 450.766848,124.988287 490.059257,161.029528C529.351665,197.070768 567.125000,231.711037 574.000000,238.007904L586.500000,249.456752L586.794909,174.478376C586.957109,133.240269 586.800046,97.039996 586.445881,94.033325zM322.421401,39.103669C309.096495,33.051797 308.830725,14.887739 321.969961,8.250000L326.423780,6.000000L398.961890,6.021962C467.412213,6.042686 471.729844,6.148314 475.578599,7.896331C488.903505,13.948203 489.169275,32.112261 476.030039,38.750000L471.576220,41.000000L399.038110,40.978038C330.587787,40.957314 326.270156,40.851686 322.421401,39.103669z"/></svg>